<svg width="16" height="15" viewBox="0 0 16 15" fill="none" xmlns="http://www.w3.org/2000/svg">
<path d="M10.4243 2.2969C9.67799 0.000150681 6.4287 0.000150681 5.68244 2.2969C5.3487 3.32404 4.39153 4.01947 3.31153 4.01947C0.896578 4.01947 -0.10751 7.10973 1.84623 8.52921C2.71996 9.16401 3.08557 10.2892 2.75183 11.3164C2.00557 13.6131 4.63431 15.523 6.58804 14.1035C7.46178 13.4687 8.64491 13.4687 9.51865 14.1035C11.4724 15.523 14.1011 13.6131 13.3549 11.3164C13.0211 10.2892 13.3867 9.16401 14.2605 8.52921C16.2142 7.10973 15.2101 4.01947 12.7952 4.01947C11.7152 4.01947 10.758 3.32404 10.4243 2.2969Z" fill="#FFE44E"/>
</svg>
