<svg width="33" height="33" viewBox="0 0 33 33" fill="none" xmlns="http://www.w3.org/2000/svg">
<g clip-path="url(#clip0_2_58)">
<path d="M10.7242 29.4304C22.976 29.4304 29.6791 19.2774 29.6791 10.4755C29.6791 10.1901 29.6727 9.8983 29.6601 9.61287C30.964 8.66987 32.0893 7.50184 32.9831 6.16365C31.7687 6.70395 30.4793 7.05683 29.159 7.21021C30.5491 6.37691 31.59 5.06784 32.0887 3.52567C30.7809 4.30073 29.3507 4.84747 27.8593 5.14245C26.8545 4.07476 25.5259 3.36782 24.079 3.13093C22.6321 2.89405 21.1474 3.14041 19.8546 3.83192C18.5617 4.52343 17.5327 5.62159 16.9265 6.9566C16.3204 8.29161 16.1709 9.78912 16.5012 11.2176C13.8531 11.0847 11.2624 10.3968 8.89723 9.19846C6.53201 8.00011 4.44502 6.31809 2.77157 4.26143C1.92103 5.72786 1.66076 7.46313 2.04366 9.11455C2.42656 10.766 3.4239 12.2097 4.83298 13.1522C3.77513 13.1186 2.74045 12.8338 1.81443 12.3213V12.4037C1.81349 13.9426 2.3455 15.4344 3.32005 16.6254C4.29459 17.8164 5.65152 18.6331 7.16016 18.9368C6.18023 19.2049 5.15175 19.244 4.1543 19.051C4.58001 20.3745 5.40829 21.532 6.52354 22.3621C7.63879 23.1921 8.98537 23.6533 10.3753 23.6812C8.01558 25.5349 5.10059 26.5403 2.09986 26.5355C1.56771 26.5347 1.03608 26.5021 0.507812 26.4378C3.55623 28.3936 7.10236 29.4323 10.7242 29.4304Z" fill="#44429A"/>
</g>
<defs>
<clipPath id="clip0_2_58">
<rect width="32.4752" height="32.4752" fill="white" transform="translate(0.507812 -0.00012207)"/>
</clipPath>
</defs>
</svg>
